<?xml version="1.0" encoding="UTF-8"?><!DOCTYPE svg PUBLIC "-//W3C//DTD SVG 1.0//EN" "http://www.w3.org/TR/2001/REC-SVG-20010904/DTD/svg10.dtd" []><svg xmlns="http://www.w3.org/2000/svg" xmlns:xlink="http://www.w3.org/1999/xlink" height="794" viewBox="0 0 1122.52 793.701" width="1123"><defs><clipPath clipPathUnits="userSpaceOnUse" id="a"><path d="M 0,595.276 H 841.89 V 0 H 0 Z"/></clipPath></defs><g><g><g clip-path="url(#a)" transform="matrix(1.33333 0 0 -1.33333 0 793.701)"><g><path d="m 0,0 c 5.369,23.319 28.301,50.917 51.804,57.098 3.962,1.028 8.185,2.032 13.121,1.863 C 64.498,53.997 63.221,49.969 61.783,46.117 53.394,23.324 23.741,3.122 0,0" fill="#27963c" transform="translate(617.023 336.562)"/></g><g><path d="m 0,0 c 23.725,-3.119 53.386,-23.31 61.783,-46.116 1.401,-3.846 2.805,-7.954 3.107,-12.883 -4.982,-0.049 -9.113,0.838 -13.085,1.901 C 28.315,-50.923 5.374,-23.334 0,0" fill="#27963c" transform="translate(617.023 336.562)"/></g><g><path d="m 0,0 v 113.241 c 0,1.517 1.011,2.36 2.528,2.36 h 13.987 c 1.347,0 2.19,-0.506 2.696,-1.685 l 40.949,-98.581 40.949,98.581 c 0.505,1.179 1.517,1.685 2.864,1.685 h 13.987 c 1.517,0 2.359,-0.843 2.359,-2.36 L 120.319,0 c 0,-1.516 -0.842,-2.359 -2.359,-2.359 h -10.953 c -1.517,0 -2.528,0.843 -2.528,2.359 V 87.796 L 68.417,-0.506 C 67.911,-1.853 66.9,-2.359 65.552,-2.359 H 54.767 c -1.348,0 -2.359,0.506 -2.864,1.853 L 15.841,87.796 V 0 c 0,-1.516 -0.843,-2.359 -2.36,-2.359 H 2.528 C 1.011,-2.359 0,-1.516 0,0" fill="#27963c" transform="translate(157.987 280.39)"/></g><g><path d="m 0,0 c 0,34.209 25.615,60.834 60.16,60.834 16.514,0 29.827,-6.067 40.274,-15.672 0.59,-0.59 1.284,-1.253 1.61,-1.596 -0.429,-0.536 -0.872,-0.985 -1.52,-1.755 L 93.851,34.172 C 93.294,33.521 92.757,32.878 92.443,32.537 91.809,32.974 91.096,33.511 90.492,34.04 82.235,41.118 72.461,45.499 60.328,45.499 35.051,45.499 16.009,26.12 16.009,0 c 0,-26.119 19.042,-45.33 44.319,-45.33 12.133,0 21.907,4.381 30.164,11.459 1.348,1.348 2.528,1.18 3.538,0.169 l 6.741,-7.415 c 1.348,-1.348 0.843,-2.527 -0.337,-3.708 C 89.987,-54.598 76.674,-60.665 60.16,-60.665 25.615,-60.665 0,-34.208 0,0" fill="#27963c" transform="translate(285.188 336.504)"/></g><g><path d="m 0,0 v 101.614 h -24.603 c -1.517,0 -2.528,0.842 -2.528,2.359 v 9.268 c 0,1.517 1.011,2.36 2.528,2.36 h 64.878 c 1.515,0 2.359,-0.843 2.359,-2.36 v -9.268 c 0,-1.517 -0.844,-2.359 -2.359,-2.359 H 15.672 V 0 c 0,-1.516 -0.844,-2.359 -2.359,-2.359 H 2.359 C 0.842,-2.359 0,-1.516 0,0" fill="#27963c" transform="translate(466.605 280.39)"/></g><g><path d="m 0,0 v 113.241 c 0,1.517 1.011,2.36 2.528,2.36 h 57.295 c 1.516,0 2.527,-0.843 2.527,-2.36 v -9.268 c 0,-1.517 -1.011,-2.359 -2.527,-2.359 H 15.841 V 65.215 h 41.792 c 1.516,0 2.359,-0.842 2.359,-2.359 v -9.268 c 0,-1.517 -0.843,-2.36 -2.359,-2.36 H 15.841 V 11.796 h 44.151 c 1.516,0 2.358,-1.011 2.358,-2.527 V 0 c 0,-1.516 -0.842,-2.359 -2.358,-2.359 H 2.528 C 1.011,-2.359 0,-1.516 0,0" fill="#27963c" transform="translate(518.7 280.39)"/></g><g><path d="m 0,0 h -23.958 l 16.913,19.919 c 3.447,3.948 8.336,9.52 8.336,17.415 0,9.276 -6.878,16.746 -17.779,16.746 -7.758,0 -12.662,-3.659 -15.714,-7.849 1.215,-0.972 2.399,-1.989 3.568,-3.067 l 0.197,-0.182 c 0.486,-0.486 0.861,-0.854 1.321,-1.302 1.958,2.673 4.798,5.279 10.112,5.279 6.528,0 10.734,-4.296 10.734,-10.217 0,-6.104 -4.373,-10.901 -7.804,-14.849 L -32.536,0.516 c -0.425,-0.44 -0.607,-1.032 -0.607,-1.639 v -4.373 c 0,-0.774 0.44,-1.199 1.214,-1.199 H 0 c 0.774,0 1.199,0.425 1.199,1.199 v 4.297 C 1.199,-0.425 0.774,0 0,0" fill="#27963c" transform="translate(418.62 343.257)"/></g><g><path d="m 0,0 c 17.883,-29.046 16.39,-71.435 6.32,-103.059 -1.701,-4.908 -3.554,-9.816 -6.331,-14.723 -2.777,4.907 -4.63,9.815 -6.33,14.723 C -16.397,-71.581 -17.914,-28.872 0,0" fill="#27963c" transform="translate(603.473 395.364)"/></g><g><path d="M 0,0 C 0,0.549 0.183,0.854 0.732,0.854 H 2.869 C 3.418,0.854 3.601,0.549 3.601,0 v -28.198 c 0,-0.55 -0.183,-0.855 -0.732,-0.855 H 0.732 C 0.183,-29.053 0,-28.748 0,-28.198 Z m -0.61,11.475 c 0,1.342 1.098,2.441 2.441,2.441 1.343,0 2.38,-1.099 2.38,-2.441 0,-1.343 -1.037,-2.442 -2.38,-2.442 -1.343,0 -2.441,1.099 -2.441,2.442" fill="#27963c" transform="translate(159.188 239.502)"/></g><g><path d="m 0,0 v 28.198 c 0,0.549 0.183,0.855 0.732,0.855 h 1.893 c 0.671,0 0.854,-0.244 0.854,-0.915 l 0.183,-3.907 c 1.709,3.051 5.005,5.554 10.071,5.554 6.531,0 10.925,-4.212 10.925,-12.145 V 0 c 0,-0.55 -0.244,-0.854 -0.793,-0.854 h -2.136 c -0.55,0 -0.733,0.304 -0.733,0.854 v 17.456 c 0,5.493 -2.991,8.911 -8.179,8.911 -5.188,0 -9.155,-3.418 -9.155,-8.911 L 3.662,0 c 0,-0.55 -0.244,-0.854 -0.793,-0.854 H 0.732 C 0.183,-0.854 0,-0.55 0,0" fill="#27963c" transform="translate(172.43 211.304)"/></g><g><path d="M 0,0 C 6.592,0 11.23,4.456 11.23,11.598 11.23,18.86 6.592,23.499 0,23.499 -6.531,23.499 -11.536,18.922 -11.536,11.78 -11.536,4.518 -6.531,0 0,0 m -10.559,-13.488 c -0.488,0.304 -0.671,0.672 -0.488,1.16 l 0.793,1.403 c 0.244,0.366 0.671,0.427 1.038,0.244 2.502,-1.647 5.615,-2.38 8.728,-2.38 6.103,0 11.718,2.747 11.718,10.681 V 2.991 C 8.972,-0.977 5.005,-3.418 -0.427,-3.418 c -8.606,0 -14.649,6.227 -14.649,15.198 0,8.851 6.043,15.137 14.527,15.137 5.554,0 9.582,-2.503 11.841,-6.592 l 0.061,5.005 c 0,0.549 0.183,0.855 0.732,0.855 h 2.014 c 0.549,0 0.733,-0.306 0.733,-0.855 V -2.686 c 0,-9.46 -7.325,-13.548 -15.198,-13.548 -4.212,0 -7.996,1.22 -10.193,2.746" fill="#27963c" transform="translate(220.217 214.172)"/></g><g><path d="M 0,0 C -0.183,6.227 -4.272,10.682 -10.742,10.682 -17.09,10.682 -21.484,6.471 -22.034,0 Z m -25.635,-1.586 c 0,8.789 6.104,15.564 14.954,15.564 8.85,0 13.916,-6.836 13.916,-14.099 0,-2.137 -0.366,-2.869 -2.014,-2.869 h -23.316 c 0.55,-6.348 4.822,-11.231 12.512,-11.231 3.907,0 6.592,1.282 8.912,3.052 0.244,0.244 0.671,0.244 0.854,0 l 0.855,-1.099 c 0.427,-0.548 0.183,-0.854 -0.245,-1.281 -2.685,-2.564 -6.53,-3.846 -10.681,-3.846 -9.765,0 -15.747,7.141 -15.747,15.809" fill="#27963c" transform="translate(268.796 227.112)"/></g><g><path d="M 0,0 C 6.592,0 11.23,4.456 11.23,11.598 11.23,18.86 6.592,23.499 0,23.499 -6.531,23.499 -11.536,18.922 -11.536,11.78 -11.536,4.518 -6.531,0 0,0 m -10.559,-13.488 c -0.488,0.304 -0.671,0.672 -0.488,1.16 l 0.793,1.403 c 0.244,0.366 0.671,0.427 1.038,0.244 2.502,-1.647 5.615,-2.38 8.728,-2.38 6.103,0 11.718,2.747 11.718,10.681 V 2.991 C 8.972,-0.977 5.005,-3.418 -0.427,-3.418 c -8.606,0 -14.649,6.227 -14.649,15.198 0,8.851 6.043,15.137 14.527,15.137 5.554,0 9.582,-2.503 11.841,-6.592 l 0.061,5.005 c 0,0.549 0.183,0.855 0.732,0.855 h 2.014 c 0.549,0 0.733,-0.306 0.733,-0.855 V -2.686 c 0,-9.46 -7.325,-13.548 -15.198,-13.548 -4.212,0 -7.996,1.22 -10.193,2.746" fill="#27963c" transform="translate(293.694 214.172)"/></g><g><path d="m 0,0 v 28.198 c 0,0.549 0.183,0.855 0.732,0.855 h 1.893 c 0.671,0 0.854,-0.244 0.854,-0.915 l 0.183,-3.907 c 1.709,3.051 5.005,5.554 10.071,5.554 6.531,0 10.925,-4.212 10.925,-12.145 V 0 c 0,-0.55 -0.244,-0.854 -0.793,-0.854 h -2.136 c -0.55,0 -0.733,0.304 -0.733,0.854 v 17.456 c 0,5.493 -2.991,8.911 -8.179,8.911 -5.188,0 -9.155,-3.418 -9.155,-8.911 L 3.662,0 c 0,-0.55 -0.244,-0.854 -0.793,-0.854 H 0.732 C 0.183,-0.854 0,-0.55 0,0" fill="#27963c" transform="translate(318.164 211.304)"/></g><g><path d="M 0,0 C -0.183,6.227 -4.272,10.682 -10.742,10.682 -17.09,10.682 -21.484,6.471 -22.034,0 Z m -25.635,-1.586 c 0,8.789 6.104,15.564 14.954,15.564 8.85,0 13.916,-6.836 13.916,-14.099 0,-2.137 -0.366,-2.869 -2.014,-2.869 h -23.316 c 0.55,-6.348 4.822,-11.231 12.512,-11.231 3.907,0 6.592,1.282 8.912,3.052 0.244,0.244 0.671,0.244 0.854,0 l 0.855,-1.099 c 0.427,-0.548 0.183,-0.854 -0.245,-1.281 -2.685,-2.564 -6.53,-3.846 -10.681,-3.846 -9.765,0 -15.747,7.141 -15.747,15.809" fill="#27963c" transform="translate(376.51 227.112)"/></g><g><path d="m 0,0 v 28.198 c 0,0.549 0.183,0.855 0.732,0.855 h 1.893 c 0.671,0 0.854,-0.244 0.854,-0.915 l 0.122,-3.297 c 1.16,2.747 3.235,4.944 6.958,4.944 1.221,0 2.197,-0.182 2.747,-0.55 0.366,-0.244 0.488,-0.488 0.488,-1.037 v -1.587 c 0,-0.671 -0.427,-0.732 -1.038,-0.549 -0.854,0.244 -1.587,0.305 -2.136,0.305 -5.615,0 -6.958,-5.127 -6.958,-8.301 L 3.662,0 c 0,-0.55 -0.244,-0.854 -0.793,-0.854 H 0.732 C 0.183,-0.854 0,-0.55 0,0" fill="#27963c" transform="translate(387.858 211.304)"/></g><g><path d="M 0,0 C 0,0.549 0.183,0.854 0.732,0.854 H 2.869 C 3.418,0.854 3.601,0.549 3.601,0 v -28.198 c 0,-0.55 -0.183,-0.855 -0.732,-0.855 H 0.732 C 0.183,-29.053 0,-28.748 0,-28.198 Z m -0.61,11.475 c 0,1.342 1.098,2.441 2.441,2.441 1.343,0 2.38,-1.099 2.38,-2.441 0,-1.343 -1.037,-2.442 -2.38,-2.442 -1.343,0 -2.441,1.099 -2.441,2.442" fill="#27963c" transform="translate(409.095 239.502)"/></g><g><path d="m 0,0 c 6.714,0 11.414,4.822 11.414,12.086 0,7.324 -4.7,12.328 -11.414,12.328 -6.836,0 -11.719,-4.943 -11.719,-12.207 C -11.719,4.883 -6.836,0 0,0 m -15.259,12.207 c 0,8.912 6.043,15.687 14.832,15.687 5.493,0 9.582,-2.748 11.78,-6.898 l 0.122,5.311 c 0,0.548 0.244,0.854 0.793,0.854 h 1.953 c 0.55,0 0.794,-0.306 0.794,-0.854 V -1.892 c 0,-0.549 -0.244,-0.854 -0.794,-0.854 h -1.953 c -0.549,0 -0.793,0.305 -0.793,0.854 l -0.122,5.189 c -2.198,-4.212 -6.287,-6.776 -11.78,-6.776 -8.789,0 -14.832,6.714 -14.832,15.686" fill="#27963c" transform="translate(436.071 213.196)"/></g><g><path d="M 0,0 C -0.184,6.227 -4.273,10.682 -10.742,10.682 -17.09,10.682 -21.484,6.471 -22.034,0 Z m -25.635,-1.586 c 0,8.789 6.104,15.564 14.953,15.564 8.85,0 13.916,-6.836 13.916,-14.099 0,-2.137 -0.366,-2.869 -2.013,-2.869 h -23.317 c 0.55,-6.348 4.823,-11.231 12.513,-11.231 3.906,0 6.592,1.282 8.911,3.052 0.244,0.244 0.672,0.244 0.855,0 l 0.854,-1.099 c 0.428,-0.548 0.184,-0.854 -0.244,-1.281 -2.686,-2.564 -6.531,-3.846 -10.682,-3.846 -9.765,0 -15.746,7.141 -15.746,15.809" fill="#27963c" transform="translate(497.04 227.112)"/></g><g><path d="M 0,0 C -0.427,0.549 -0.427,0.977 -0.122,1.525 L 0.61,2.441 c 0.305,0.428 0.855,0.489 1.343,-0.06 1.771,-1.953 4.028,-3.48 7.446,-3.48 3.785,0 6.47,1.709 6.47,5.127 0,3.052 -2.075,4.456 -5.005,5.677 L 7.386,11.17 c -3.602,1.525 -6.776,3.662 -6.776,7.995 0,4.821 4.09,7.813 8.911,7.813 3.357,0 6.47,-1.404 8.545,-4.029 0.367,-0.428 0.306,-0.916 -0.061,-1.343 l -0.671,-0.794 c -0.55,-0.609 -0.915,-0.548 -1.465,0 -1.891,2.077 -3.906,2.992 -6.225,2.992 -2.808,0 -5.494,-1.404 -5.494,-4.517 0,-3.113 2.198,-4.211 5.494,-5.555 L 12.39,12.573 C 16.296,10.986 19.47,8.729 19.47,4.09 19.47,-1.404 14.771,-4.395 9.46,-4.395 4.639,-4.395 1.587,-1.953 0,0" fill="#27963c" transform="translate(519.737 214.112)"/></g><g><path d="M 0,0 C -0.184,6.227 -4.272,10.682 -10.742,10.682 -17.09,10.682 -21.484,6.471 -22.033,0 Z m -25.635,-1.586 c 0,8.789 6.104,15.564 14.953,15.564 8.851,0 13.916,-6.836 13.916,-14.099 0,-2.137 -0.365,-2.869 -2.013,-2.869 h -23.316 c 0.55,-6.348 4.822,-11.231 12.513,-11.231 3.906,0 6.592,1.282 8.91,3.052 0.244,0.244 0.672,0.244 0.856,0 l 0.853,-1.099 c 0.428,-0.548 0.184,-0.854 -0.244,-1.281 -2.686,-2.564 -6.53,-3.846 -10.681,-3.846 -9.765,0 -15.747,7.141 -15.747,15.809" fill="#27963c" transform="translate(571.432 227.112)"/></g><g><path d="m 0,0 v 28.198 c 0,0.549 0.184,0.855 0.732,0.855 h 1.893 c 0.672,0 0.854,-0.244 0.854,-0.915 l 0.123,-3.297 c 1.16,2.747 3.234,4.944 6.958,4.944 1.22,0 2.197,-0.182 2.747,-0.55 0.365,-0.244 0.488,-0.488 0.488,-1.037 v -1.587 c 0,-0.671 -0.428,-0.732 -1.038,-0.549 -0.855,0.244 -1.587,0.305 -2.136,0.305 -5.615,0 -6.959,-5.127 -6.959,-8.301 L 3.662,0 c 0,-0.55 -0.244,-0.854 -0.793,-0.854 H 0.732 C 0.184,-0.854 0,-0.55 0,0" fill="#27963c" transform="translate(582.78 211.304)"/></g><g><path d="m 0,0 -11.169,28.137 c -0.244,0.672 0,1.038 0.671,1.038 h 2.075 c 0.488,0 0.793,-0.244 0.977,-0.733 L 2.197,3.296 11.841,28.442 c 0.183,0.489 0.488,0.733 0.976,0.733 h 2.076 c 0.67,0 0.915,-0.366 0.67,-1.038 L 4.395,0 C 4.212,-0.488 3.784,-0.732 3.296,-0.732 H 1.099 C 0.61,-0.732 0.183,-0.488 0,0" fill="#27963c" transform="translate(613.478 211.182)"/></g><g><path d="M 0,0 C 0,0.549 0.183,0.854 0.732,0.854 H 2.868 C 3.418,0.854 3.601,0.549 3.601,0 v -28.198 c 0,-0.55 -0.183,-0.855 -0.733,-0.855 H 0.732 C 0.183,-29.053 0,-28.748 0,-28.198 Z m -0.611,11.475 c 0,1.342 1.099,2.441 2.441,2.441 1.344,0 2.381,-1.099 2.381,-2.441 0,-1.343 -1.037,-2.442 -2.381,-2.442 -1.342,0 -2.441,1.099 -2.441,2.442" fill="#27963c" transform="translate(636.973 239.502)"/></g><g><path d="M 0,0 V 1.771 C 0,2.197 0.184,2.563 0.428,2.868 L 18.066,25.879 H 1.038 c -0.55,0 -0.854,0.244 -0.854,0.794 v 1.525 c 0,0.549 0.304,0.855 0.854,0.855 h 20.264 c 0.55,0 0.915,-0.306 0.915,-0.855 v -1.769 c 0,-0.428 -0.183,-0.733 -0.427,-1.038 L 4.09,2.38 h 17.334 c 0.549,0 0.854,-0.305 0.854,-0.854 V 0 c 0,-0.55 -0.305,-0.854 -0.854,-0.854 H 0.855 C 0.306,-0.854 0,-0.55 0,0" fill="#27963c" transform="translate(648.994 211.304)"/></g><g><path d="M 0,0 C 0,0.549 0.183,0.854 0.732,0.854 H 2.868 C 3.418,0.854 3.601,0.549 3.601,0 v -28.198 c 0,-0.55 -0.183,-0.855 -0.733,-0.855 H 0.732 C 0.183,-29.053 0,-28.748 0,-28.198 Z m -0.611,11.475 c 0,1.342 1.099,2.441 2.441,2.441 1.344,0 2.381,-1.099 2.381,-2.441 0,-1.343 -1.037,-2.442 -2.381,-2.442 -1.342,0 -2.441,1.099 -2.441,2.442" fill="#27963c" transform="translate(679.692 239.502)"/></g></g></g></g></svg>